<?xml version="1.0" encoding="utf-8"?>
<!-- Generator: Adobe Illustrator 24.2.0, SVG Export Plug-In . SVG Version: 6.00 Build 0)  -->
<svg version="1.1" id="图层_1" xmlns="http://www.w3.org/2000/svg" xmlns:xlink="http://www.w3.org/1999/xlink" x="0px" y="0px"
	 viewBox="0 0 44 44" style="enable-background:new 0 0 44 44;" xml:space="preserve">
<style type="text/css">
	.st0{fill:none;}
	.st1{fill-rule:evenodd;clip-rule:evenodd;fill:#DBDBDB;}
</style>
<g id="Write-g" transform="translate(14.000000, 0.000000)">
	<rect id="矩形" x="-14" y="0" class="st0" width="44" height="44"/>
	<path class="st1" d="M8,4c-9.9,0-18,8.1-18,18s8.1,18,18,18s18-8.1,18-18S17.9,4,8,4z M13.7,23H9v4.7c0,0.6-0.4,1-1,1s-1-0.4-1-1
		V23H2.3c-0.6,0-1-0.4-1-1s0.4-1,1-1H7v-4.7c0-0.6,0.4-1,1-1s1,0.4,1,1V21h4.7c0.6,0,1,0.4,1,1S14.3,23,13.7,23z"/>
</g>
</svg>
