<?xml version="1.0" standalone="no"?><!DOCTYPE svg PUBLIC "-//W3C//DTD SVG 1.1//EN" "http://www.w3.org/Graphics/SVG/1.1/DTD/svg11.dtd"><svg class="icon" width="200px" height="200.00px" viewBox="0 0 1024 1024" version="1.1" xmlns="http://www.w3.org/2000/svg"><path d="M512 512m-512 0a512 512 0 1 0 1024 0 512 512 0 1 0-1024 0Z" fill="#EEEEEE" /><path d="M519.921509 734.150038c-20.73117-0.850113-36.902642-17.253434-36.902641-36.767396v-370.765284c0-19.456 16.171472-35.859321 36.902641-36.767396 22.160906-0.908075 40.380377 15.649811 40.380378 36.226415v371.847246c0 20.576604-18.219472 37.192453-40.380378 36.226415z" fill="#D6D6D6" /><path d="M697.942943 560.301887H326.057057C306.002113 560.301887 289.811321 542.990491 289.811321 521.660377c0-21.388075 16.229434-38.641509 36.245736-38.641509h371.885886c20.054943 0 36.245736 17.311396 36.245736 38.641509 0 21.388075-16.229434 38.641509-36.245736 38.64151z" fill="#D6D6D6" /></svg>