<?xml version="1.0" encoding="utf-8"?>
<!-- Generator: Adobe Illustrator 24.2.0, SVG Export Plug-In . SVG Version: 6.00 Build 0)  -->
<svg version="1.1" id="图层_1" xmlns="http://www.w3.org/2000/svg" xmlns:xlink="http://www.w3.org/1999/xlink" x="0px" y="0px"
	 viewBox="0 0 44 44" style="enable-background:new 0 0 44 44;" xml:space="preserve">
<style type="text/css">
	.st0{opacity:0;}
	.st1{fill:url(#形状_1_);}
	.st2{fill:url(#路径_2_);}
	.st3{fill:url(#路径_3_);}
</style>
<g id="页面-1">
	<g id="记账" transform="translate(-661.000000, -1247.000000)">
		<g id="编组-2" transform="translate(18.000000, 1247.000000)">
			<g id="统计分析" transform="translate(617.000000, 0.000000)">
				<g id="Analysis" transform="translate(26.000000, 0.000000)">
					<rect id="矩形" y="0" class="st0" width="44" height="44"/>
					
						<linearGradient id="形状_1_" gradientUnits="userSpaceOnUse" x1="-266.8611" y1="431.8064" x2="-266.8611" y2="430.8064" gradientTransform="matrix(36 0 0 -36 9629 15549.0303)">
						<stop  offset="0" style="stop-color:#FE9C3C"/>
						<stop  offset="1" style="stop-color:#FF8440"/>
					</linearGradient>
					<path id="形状" class="st1" d="M36.6,6.3H23.7c-0.3,0-0.6-0.3-0.6-0.6V5.1C23.1,4.5,22.6,4,22,4c-0.6,0-1.2,0.5-1.2,1.1v0.6
						c0,0.3-0.3,0.6-0.6,0.6H7.4C5.5,6.3,4,7.8,4,9.6v19.7c0,1.9,1.5,3.4,3.4,3.4h10.5c0.4,0,0.6,0.4,0.5,0.7L17,38.6
						c-0.2,0.6,0.2,1.2,0.8,1.4c0.1,0,0.2,0,0.3,0c0.5,0,1-0.3,1.1-0.8l1.7-6.4v6.1c0,0.6,0.5,1.1,1.1,1.1c0.6,0,1.2-0.5,1.2-1.1
						v-6.2h0l1.7,6.5C25,39.7,25.5,40,26,40c0.1,0,0.2,0,0.3,0c0.6-0.2,1-0.8,0.8-1.4l-1.4-5.2c-0.1-0.4,0.2-0.7,0.5-0.7h10.4
						c1.9,0,3.4-1.5,3.4-3.4V9.6C40,7.8,38.5,6.3,36.6,6.3z M8.5,19.7c0-4.3,3.5-7.9,7.9-7.9c0.8,0,1.5,0.1,2.2,0.3
						c2.5,0.8,4.5,2.8,5.3,5.3c0.2,0.7,0.3,1.5,0.3,2.2c0,4.3-3.5,7.9-7.9,7.9S8.5,24.1,8.5,19.7z M33.2,23.1c0.6,0,1.1,0.5,1.1,1.1
						c0,0.3-0.1,0.6-0.3,0.8c-0.2,0.2-0.5,0.3-0.8,0.3h-5.1c-0.6,0-1.1-0.5-1.1-1.1c0-0.3,0.1-0.6,0.3-0.8c0.2-0.2,0.5-0.3,0.8-0.3
						H33.2L33.2,23.1z M28.2,19.7c0-0.3,0.1-0.6,0.3-0.8c0.2-0.2,0.5-0.3,0.8-0.3h3.9c0.6,0,1.1,0.5,1.1,1.1c0,0.3-0.1,0.6-0.3,0.8
						c-0.2,0.2-0.5,0.3-0.8,0.3h-3.9C28.7,20.9,28.2,20.4,28.2,19.7z M34,16c-0.2,0.2-0.5,0.3-0.8,0.3h-5.1c-0.6,0-1.1-0.5-1.1-1.1
						c0-0.3,0.1-0.6,0.3-0.8c0.2-0.2,0.5-0.3,0.8-0.3h5.1c0.6,0,1.1,0.5,1.1,1.1C34.4,15.6,34.2,15.8,34,16L34,16z"/>
					
						<linearGradient id="路径_2_" gradientUnits="userSpaceOnUse" x1="-182.8333" y1="309.8898" x2="-182.8333" y2="308.8898" gradientTransform="matrix(3 0 0 -3 568.9995 944.6697)">
						<stop  offset="0" style="stop-color:#FE9C3C"/>
						<stop  offset="1" style="stop-color:#FF8440"/>
					</linearGradient>
					<path id="路径" class="st2" d="M19.3,18c-0.2,0-0.3-0.1-0.3-0.3v-2.6c0-0.1,0.1-0.2,0.2-0.1c0.6,0.3,1.1,0.7,1.6,1.2
						c0.5,0.5,0.9,1,1.2,1.6c0,0.1,0,0.2-0.1,0.2H19.3z"/>
					
						<linearGradient id="路径_3_" gradientUnits="userSpaceOnUse" x1="-249.5" y1="406.617" x2="-249.5" y2="405.617" gradientTransform="matrix(11 0 0 -11 2760.9995 4486.7876)">
						<stop  offset="0" style="stop-color:#FE9C3C"/>
						<stop  offset="1" style="stop-color:#FF8440"/>
					</linearGradient>
					<path id="路径_1_" class="st3" d="M22,20.1c-0.1,1.2-0.7,2.4-1.6,3.3c-1,1-2.4,1.6-3.9,1.6c-1.4,0-2.8-0.6-3.9-1.6
						c-1.1-1-1.6-2.4-1.7-3.9c0-1.5,0.6-2.9,1.6-4c0.9-0.9,2-1.4,3.3-1.6c0.3,0,0.6,0.2,0.6,0.5v3.3c0,0.9,0.7,1.7,1.7,1.7h3.3
						C21.8,19.5,22,19.8,22,20.1z"/>
				</g>
			</g>
		</g>
	</g>
</g>
</svg>
