<?xml version="1.0" standalone="no"?><!DOCTYPE svg PUBLIC "-//W3C//DTD SVG 1.1//EN" "http://www.w3.org/Graphics/SVG/1.1/DTD/svg11.dtd"><svg class="icon" width="200px" height="200.00px" viewBox="0 0 1024 1024" version="1.1" xmlns="http://www.w3.org/2000/svg"><path d="M512 512m-512 0a512 512 0 1 0 1024 0 512 512 0 1 0-1024 0Z" fill="#EEEEEE" /><path d="M458.24966 348.391849c49.577057 0 89.744906-13.466566 89.744906-30.140377 0-16.615849-40.167849-30.101736-89.744906-30.101736-49.557736 0-89.744906 13.466566-89.744905 30.101736 0 16.673811 40.18717 30.140377 89.744905 30.140377z m0-116.542792c114.378868 0 207.09917 38.699472 207.09917 86.402415v368.176302c0 47.722264-92.720302 86.421736-207.09917 86.421735C343.870792 772.830189 251.169811 734.130717 251.169811 686.408453V318.251472C251.169811 270.529208 343.890113 231.849057 458.24966 231.849057z m317.188831 128.927396c12.017509 0 20.093585 12.365283 15.302037 23.378113l-51.431849 118.243019a63.430038 63.430038 0 0 0 0 50.639698l51.431849 118.223698a16.693132 16.693132 0 0 1-15.302037 23.378113h-88.411774v-333.862641h88.411774z" fill="#D6D6D6" /></svg>