<?xml version="1.0" standalone="no"?><!DOCTYPE svg PUBLIC "-//W3C//DTD SVG 1.1//EN" "http://www.w3.org/Graphics/SVG/1.1/DTD/svg11.dtd"><svg class="icon" width="200px" height="200.00px" viewBox="0 0 1024 1024" version="1.1" xmlns="http://www.w3.org/2000/svg"><path d="M265.411765 75.294118c-22.467765 0-44.016941 9.035294-59.888941 25.148235A86.422588 86.422588 0 0 0 180.705882 161.129412v686.682353c0 22.768941 8.929882 44.604235 24.816942 60.687059A84.148706 84.148706 0 0 0 265.411765 933.647059h508.235294c22.467765 0 44.016941-9.035294 59.888941-25.148235A86.422588 86.422588 0 0 0 858.352941 847.811765V332.8L604.235294 75.294118h-338.823529z" fill="#3577FE" /><path d="M434.823529 847.811765h-169.411764V504.470588h169.411764v76.393412H350.117647v190.554353h84.705882V847.811765zM561.889882 804.894118v-88.847059h-127.066353v-80.670118h127.066353V547.388235l127.051294 128.752941-127.066352 128.752942z" fill="#E7F1FE" /><path d="M561.889882 375.717647V139.670588L794.804706 375.717647H561.889882z" fill="#FF0000" /></svg>