<?xml version="1.0" standalone="no"?><!DOCTYPE svg PUBLIC "-//W3C//DTD SVG 1.1//EN" "http://www.w3.org/Graphics/SVG/1.1/DTD/svg11.dtd"><svg class="icon" width="200px" height="200.00px" viewBox="0 0 1024 1024" version="1.1" xmlns="http://www.w3.org/2000/svg"><path d="M904.533333 708.266667c-63.6928 0-125.1328-10.24-182.6816-29.184a51.4048 51.4048 0 0 0-52.0192 12.4928l-112.64 112.9472a772.4032 772.4032 0 0 1-337.408-337.2032l112.64-112.8448a51.4048 51.4048 0 0 0 12.5952-52.0192A585.728 585.728 0 0 1 315.835733 119.466667c0-28.4672-22.8352-51.2-51.2-51.2H85.333333C56.866133 68.266667 34.133333 90.999467 34.133333 119.466667c0 480.7168 389.6832 870.4 870.4 870.4 28.3648 0 51.2-22.8352 51.2-51.2V759.466667c0-28.4672-22.8352-51.2-51.2-51.2z" fill="#3577FE" /><path d="M853.333333 529.066667h102.4C955.733333 274.568533 749.431467 68.266667 494.933333 68.266667v102.4c197.9392 0 358.4 160.4608 358.4 358.4z" fill="#FF0000" /><path d="M648.533333 529.066667h102.4c0-141.380267-114.619733-256-256-256v102.4c84.7872 0 153.6 68.8128 153.6 153.6z" fill="#E7F1FE" /></svg>