


<?xml version="1.0" standalone="no"?><!DOCTYPE svg PUBLIC "-//W3C//DTD SVG 1.1//EN" "http://www.w3.org/Graphics/SVG/1.1/DTD/svg11.dtd"><svg class="icon" width="200px" height="200.00px" viewBox="0 0 1024 1024" version="1.1" xmlns="http://www.w3.org/2000/svg"><path d="M512 512m-512 0a512 512 0 1 0 1024 0 512 512 0 1 0-1024 0Z" fill="#EEEEEE" /><path d="M566.098113 515.864151c25.116981 30.913208 38.641509 69.554717 38.64151 112.060377v9.660378h-15.456604c1.932075 3.864151 3.864151 9.660377 3.864151 15.456603 0 5.796226-1.932075 11.592453-3.864151 15.456604h15.456604v9.660378c0 30.913208-7.728302 52.166038-21.252831 69.554717v7.728301h164.226416l27.049056-359.366037h17.388679V367.09434h-110.128301c0-56.030189-40.573585-102.4-98.53585-104.332076-13.524528 0-13.524528 19.320755 0 19.320755 48.301887 0 79.215094 38.641509 79.215095 85.011321h-119.788679v30.913207h15.456603l7.728302 117.856604z m9.660378 121.720755h-309.132076c-3.864151 3.864151-5.796226 9.660377-5.796226 15.456603 0 5.796226 1.932075 11.592453 5.796226 15.456604H579.622642c3.864151-3.864151 5.796226-9.660377 5.796226-15.456604 0-5.796226-1.932075-11.592453-5.796226-15.456603h-3.864151z m-152.633963 142.973585c73.418868 0 135.245283-3.864151 160.362264-46.369812 7.728302-13.524528 13.524528-30.913208 13.524529-54.098113H251.169811c0 94.671698 77.283019 100.467925 171.954717 100.467925zM270.490566 629.856604h326.520755c0-34.777358-9.660377-67.622642-28.981132-94.671698-30.913208-46.369811-83.079245-77.283019-144.905661-77.283019-94.671698 0-171.954717 77.283019-171.954717 171.954717h19.320755z" fill="#D6D6D6" /></svg>