<?xml version="1.0" standalone="no"?><!DOCTYPE svg PUBLIC "-//W3C//DTD SVG 1.1//EN" "http://www.w3.org/Graphics/SVG/1.1/DTD/svg11.dtd"><svg class="icon" width="200px" height="200.00px" viewBox="0 0 1024 1024" version="1.1" xmlns="http://www.w3.org/2000/svg"><path d="M512 512m-512 0a512 512 0 1 0 1024 0 512 512 0 1 0-1024 0Z" fill="#EEEEEE" /><path d="M734.188679 587.350943H382.550943c-3.864151 0-7.728302 1.932075-11.592452 3.864151-3.864151 0-7.728302 3.864151-11.592453 7.728302-3.864151 3.864151-5.796226 9.660377-7.728302 15.456604s-3.864151 11.592453-3.864151 17.388679c0 7.728302 0 13.524528 1.932075 19.320755 1.932075 5.796226 3.864151 11.592453 7.728302 15.456604l11.592453 11.592453c3.864151 3.864151 9.660377 3.864151 13.524528 3.864151H734.188679c-3.864151-3.864151-7.728302-7.728302-11.592453-13.524529-1.932075-3.864151-5.796226-9.660377-7.728301-15.456604-1.932075-5.796226-3.864151-13.524528-3.864151-21.25283 0-9.660377 1.932075-15.456604 3.864151-21.25283 1.932075-5.796226 3.864151-9.660377 7.728301-13.524528 3.864151-3.864151 7.728302-7.728302 11.592453-9.660378z m0 139.109434c0 5.796226-3.864151 7.728302-11.592453 7.728302H351.637736c-11.592453 0-21.25283-1.932075-28.981132-7.728302s-13.524528-11.592453-19.320755-19.320754c-5.796226-7.728302-7.728302-17.388679-9.660377-28.981132-1.932075-11.592453-3.864151-25.116981-3.864151-36.709434V345.841509c0-27.049057 7.728302-44.437736 21.25283-56.030188s32.845283-19.320755 59.89434-19.320755H676.226415c9.660377 0 17.388679 1.932075 25.116981 5.796226 7.728302 3.864151 13.524528 9.660377 17.388679 15.456604 3.864151 7.728302 7.728302 15.456604 11.592453 25.116981s3.864151 19.320755 3.864151 30.913208v206.732075H372.890566c-7.728302 0-13.524528 1.932075-21.25283 5.796227-7.728302 3.864151-13.524528 9.660377-17.388679 17.388679-5.796226 7.728302-9.660377 15.456604-13.524529 25.116981-3.864151 9.660377-5.796226 19.320755-5.796226 30.913208 0 13.524528 1.932075 25.116981 5.796226 34.777358s7.728302 19.320755 13.524529 27.049057c5.796226 7.728302 11.592453 13.524528 19.320754 17.388679 7.728302 3.864151 13.524528 5.796226 21.252831 5.796226h347.773584c1.932075 0 5.796226 0 7.728302 1.932076 1.932075-1.932075 3.864151 1.932075 3.864151 5.796226zM515.864151 270.490566v197.071698l38.641509-54.098113 38.64151 54.098113V270.490566h-77.283019z" fill="#D6D6D6" /></svg>