<?xml version="1.0" standalone="no"?><!DOCTYPE svg PUBLIC "-//W3C//DTD SVG 1.1//EN" "http://www.w3.org/Graphics/SVG/1.1/DTD/svg11.dtd"><svg class="icon" width="200px" height="196.36px" viewBox="0 0 1043 1024" version="1.1" xmlns="http://www.w3.org/2000/svg"><path d="M521.660377 512m-512 0a512 512 0 1 0 1024 0 512 512 0 1 0-1024 0Z" fill="#EEEEEE" /><path d="M696.764377 408.923774C602.227925 388.656302 602.227925 452.820528 531.320755 452.820528c-70.90717 0-70.90717-67.526038-165.443623-43.896754-94.536453 23.629283-141.81434 334.268377-70.90717 334.268377S413.135698 655.398642 531.320755 655.398642c118.165736 0 165.443623 87.793509 236.350792 87.793509s23.629283-310.639094-70.90717-334.268377z m-232.96966 175.567698h-43.896755v43.896754h-47.277887v-43.896754h-43.877433v-43.877434h43.877433v-43.896755h43.896755v43.896755h47.277887v43.877434zM666.37283 618.264151c-30.391547 0-57.382642-23.629283-57.382641-57.382642 0-33.772679 26.991094-54.040151 57.382641-54.040151 30.391547 0 57.401962 23.629283 57.401962 57.382642 0 33.772679-27.010415 54.040151-57.382641 54.040151z" fill="#D6D6D6" /><path d="M531.320755 419.06717c10.124075 0 20.267472-3.381132 30.391547-6.762264a67.429434 67.429434 0 0 1-6.762264-30.391548v-23.629283c0-23.648604 20.267472-43.896755 43.896754-43.896754h91.174642V270.490566H588.703396c-43.896755 0-81.031245 37.134491-81.031245 81.031245v30.391547a67.429434 67.429434 0 0 1-6.762264 30.391548c10.124075 6.762264 20.267472 6.762264 30.391547 6.762264z" fill="#D6D6D6" /></svg>