<?xml version="1.0" encoding="UTF-8"?>
<svg width="53px" height="53px" viewBox="0 0 53 53" version="1.1" xmlns="http://www.w3.org/2000/svg" xmlns:xlink="http://www.w3.org/1999/xlink">
    <title>home</title>
    <g id="页面-1" stroke="none" stroke-width="1" fill="none" fill-rule="evenodd">
        <g id="记账" transform="translate(-347.000000, -530.000000)">
            <g id="home" transform="translate(347.000000, 530.000000)">
                <circle id="椭圆形" fill="#FFF2E9" cx="26.5" cy="26.5" r="26.5"></circle>
                <g id="房子01" transform="translate(13.000000, 14.000000)" fill="#FF9400" fill-rule="nonzero">
                    <path d="M14.0000376,4.35996598 L3.99974604,13.0579492 L3.99974604,22.0004882 C3.99974604,23.0005228 4.99974604,24.0005848 5.9998153,24.0005848 L22.0002326,24.0005848 C23.0002672,24.0005848 24.0003292,23.0005502 24.0003292,22.0004882 L24.0003292,13.0579492 L14.0000102,4.35996598 L14.0000376,4.35996598 Z M17.0001689,21.0004809 L10.9999611,21.0004809 L10.9999611,16.0003351 C10.9999611,14.8958663 11.8954794,14.0002659 13.0000303,14.0002659 L15.0000996,14.0002659 C16.1046232,14.0002659 17.0001689,14.8958115 17.0001689,16.0003351 L17.0001689,21.0004809 L17.0001689,21.0004809 Z M27.9350047,12.3118573 C27.7846479,12.7259545 27.3968782,13.0003134 26.9603671,13.0003134 L25.458331,13.0003134 L14.0000376,3.0347511 L2.54168948,13.0003134 L1.03970813,13.0003134 C0.603169651,13.0003134 0.215454739,12.7259545 0.0650431372,12.3118847 C-0.0863263256,11.8968023 0.0318463991,11.4309533 0.36392325,11.1438686 L12.5507386,0.537113917 C12.9609496,0.179722159 13.480521,0 14.0000376,0 C14.5195542,0 15.0391256,0.179667424 15.4493366,0.537113917 L19.000156,3.62753045 L19.000156,2.00006926 C19.000156,1.44732852 19.4474225,1.000062 20.0001633,1.000062 L21.0001979,1.000062 C21.5529113,1.000062 22.0002052,1.44732852 22.0002052,2.00006926 L22.0002052,6.23844159 L27.636152,11.1438412 C27.9681741,11.4309533 28.0863194,11.8968297 27.93495,12.3118573 L27.9350047,12.3118573 Z" id="形状"></path>
                </g>
            </g>
        </g>
    </g>
</svg>