<?xml version="1.0" standalone="no"?><!DOCTYPE svg PUBLIC "-//W3C//DTD SVG 1.1//EN" "http://www.w3.org/Graphics/SVG/1.1/DTD/svg11.dtd"><svg class="icon" width="200px" height="200.00px" viewBox="0 0 1024 1024" version="1.1" xmlns="http://www.w3.org/2000/svg"><path d="M841.936 528.208L960 669.44h-77.168c-2.208 82.96-33.152 151.184-98.96 200.32-47.232 35.424-100.672 45.76-158.656 41.248v-96.704c8.96 0 17.984 0.592 26.928 0 10.144-0.608 20.896-0.608 30.448-2.912 37.68-8.032 67.008-29.184 87.808-62.4 14.56-23.472 22.016-49.76 22.608-78.944h-69.216c39.984-47.952 78.768-94.992 118.144-141.936v0.096zM868.768 80c19.2 0 33.76 7.424 42.208 25.28 2.8 6.224 4.512 13.744 4.512 20.56 0.608 91.584 0 183.68 0 275.264 0 21.76-12.352 38.416-32.64 44.048a61.968 61.968 0 0 1-14.08 1.696h-296c-10.64-0.096-20.8-2.304-29.232-9.232a46.304 46.304 0 0 1-17.984-36.608V125.84c0-22.368 12.96-38.416 33.152-44.032 4.528-1.12 9.648-1.712 14.08-1.712h296V80z" fill="#3577FE" /><path d="M477.824 545.456c11.152 0 21.408 2.208 30.352 9.728 10.144 8.032 15.168 18.768 16.368 32.112v277.568a44.608 44.608 0 0 1-17.488 38.208 43.952 43.952 0 0 1-27.616 8.64H181.232c-22.608 0-38.192-12.544-43.808-33.808a48.656 48.656 0 0 1-1.712-13.152V592.4c0-22.88 11.856-39.52 32.64-45.232 4.528-1.12 9.664-1.712 14.08-1.712h295.392z" fill="#FF0000" /><path d="M446.784 81.104v96.704h-6.24c-16.368 0.608-32.64 0.608-48.416 2.208a119.744 119.744 0 0 0-65.216 32.192 144.864 144.864 0 0 0-45.008 80.064c-2.208 9.728-2.816 19.456-3.92 29.792h70.432c-39.488 47.536-78.88 94.496-118.256 141.936-39.392-46.944-78.768-93.28-118.16-140.832h77.056c1.6-80.064 30.96-145.856 92.24-195.712 48.432-38.928 104.592-50.96 165.488-46.352z" fill="#3577FE" /></svg>