<?xml version="1.0" encoding="UTF-8"?>
<svg width="1138px" height="256px" viewBox="0 0 1138 256" version="1.1" xmlns="http://www.w3.org/2000/svg" xmlns:xlink="http://www.w3.org/1999/xlink">
    <title>JUI-KIT备份</title>
    <defs>
        <polygon id="path-1" points="0 0 169 0 169 212 0 212"></polygon>
    </defs>
    <g id="Page-1" stroke="none" stroke-width="1" fill="none" fill-rule="evenodd">
        <g id="画板" transform="translate(-1026.000000, -1024.000000)">
            <g id="JUI-KIT备份" transform="translate(1026.000000, 1024.000000)">
                <g id="编组-2" transform="translate(0.000000, 0.000000)">
                    <g id="编组">
                        <path d="M87.1156794,210.84592 C86.3603193,202.569246 86.6021834,194.270228 86.6040439,185.978657 C86.6059044,156.272007 86.563113,126.565357 86.6300908,96.8605684 C86.6468352,89.256083 88.4236059,87.5113713 95.8972055,87.3996501 C101.46194,87.3195833 107.030395,87.3735819 112.595129,87.38103 C123.797156,87.3922021 124.67903,88.2878332 124.697634,99.5809781 C124.736705,123.891497 124.537632,148.203879 124.874381,172.512536 C136.999213,172.987351 149.133347,172.860734 161.26376,172.797425 C171.425772,172.741565 171.94671,172.242543 171.963455,161.923234 C172.017409,125.409043 172.004385,88.8948514 171.970897,52.3806598 C171.961594,41.2141322 171.755079,41.0223442 160.534447,41 C160.534447,41 56.240801,42.4449267 46.1904188,42.3201714 C42.8657181,42.279207 41.2545313,43.7148236 40.0842813,46.7443285 C38.471234,50.920837 8.70334888,121.699901 0.0576387251,148.635867 C-1.54610609,153.45291 30.7613518,224.706789 41.5540707,249.942732 C43.2527006,253.916281 42.9159514,256.012914 47.422065,256 C86.3845057,255.886297 125.346946,255.899331 164.311248,255.992432 C168.757825,256.003604 169.669467,254.439508 169.669467,248.933518 C169.669467,243.496423 170.417385,210.680201 170.417385,210.680201 C144.532348,211.557212 113.01746,210.877575 87.1156794,210.84592 Z" id="Fill-1" fill="#B0B0B0"></path>
                        <g transform="translate(86.000000, 0.000000)">
                            <mask id="mask-2" fill="white">
                                <use xlink:href="#path-1"></use>
                            </mask>
                            <g id="Clip-4"></g>
                            <path d="M120.259423,211.35705 C82.4174196,211.574158 44.5754164,211.800543 6.7352647,211.997239 C0.141890912,212.03064 0.00857922632,211.867346 0.00672767513,205.27247 C-0.00253008082,167.189567 -0.00253008082,129.104808 0.00857922632,91.0200496 C0.0104307775,84.6868162 0.228913818,84.4752755 6.46123512,84.4604305 C16.4633146,84.4381631 26.4709488,84.6459926 36.4656222,84.3695051 C41.0296958,84.2433229 42.6238814,85.597926 42.5831473,90.3650155 C42.3702189,114.569732 42.4776089,138.778159 42.4924213,162.986586 C42.4961244,169.269718 42.6942404,169.466413 48.9839597,169.481258 C59.1378665,169.50167 69.2973278,169.377344 79.449383,169.536927 C83.3857809,169.601874 84.9207168,168.193458 84.911459,164.161194 C84.820733,125.304497 84.8096237,86.4496559 84.9225683,47.5948146 C84.9355292,43.2842078 82.9951036,42.495569 79.2808919,42.510414 C55.2755307,42.6106175 0.488130984,42.2209371 0.488130984,42.2209371 C0.488130984,42.2209371 0.678840757,39.1498849 0.660325245,35.7726553 C0.608481812,25.2902541 0.701059371,14.8022861 0.40295963,4.32545179 C0.290015007,0.41380341 2.3007996,0.0742248269 5.24661754,0.0816473096 C18.7870114,0.120615344 32.3292568,0.0946366543 45.8677991,0.0946366543 C70.7952328,0.0946366543 95.724518,0.198551412 120.6501,-0.000926727203 C125.241947,-0.0352567928 127.076834,1.91500053 128.922831,5.88046191 C130.141151,8.49688706 153.592899,63.5197512 167.525822,98.4184092 C168.316434,100.394645 169.245913,102.409849 168.940407,104.666284 C163.857899,115.38806 125.747421,208.183939 120.259423,211.35705 Z" id="Fill-3" fill="#F8F8F8" mask="url(#mask-2)"></path>
                        </g>
                    </g>
                    <g id="JUI-KIT" transform="translate(340.023395, 39.164489)" fill="#B0B0B0" fill-rule="nonzero">
                        <path d="M11.6203467,166.004952 L0,151.538807 C2.37149932,149.641607 4.9010986,147.388683 7.58879783,144.780034 C10.2764971,142.171384 12.7665713,139.483685 15.0590207,136.716936 C17.35147,133.950187 19.2486695,131.183437 20.7506191,128.416688 C22.2525686,125.649939 23.0035434,123.238915 23.0035434,121.183615 L23.0035434,20.3948942 L13.2803962,20.3948942 L13.2803962,1.66004952 L41.5012381,1.66004952 L41.5012381,121.183615 C41.5012381,126.242814 40.1969135,131.222962 37.5882642,136.124061 C34.979615,141.02516 31.9361909,145.531008 28.4579919,149.641607 C24.9797928,153.752206 21.6201688,157.26993 18.3791197,160.194779 C15.1380707,163.119628 12.8851463,165.056353 11.6203467,166.004952 Z" id="路径"></path>
                        <path d="M150.827357,163.396303 C142.764259,163.396303 135.135936,162.091979 127.942388,159.483329 C120.74884,156.87468 114.464367,153.317431 109.088969,148.811582 C103.71357,144.305734 99.4843965,139.009385 96.4014474,132.922537 C93.3184983,126.835689 91.7770237,120.314066 91.7770237,113.357668 L91.7770237,19.4462944 L85.6111255,19.4462944 L85.6111255,0.711449796 L110.511868,0.711449796 L110.511868,113.357668 C110.511868,117.626366 111.579043,121.69744 113.713392,125.570889 C115.847742,129.444338 118.733066,132.803962 122.369365,135.649761 C126.005664,138.49556 130.274363,140.748485 135.175461,142.408534 C140.07656,144.068584 145.293858,144.898609 150.827357,144.898609 C156.360855,144.898609 161.578154,144.068584 166.479252,142.408534 C171.380351,140.748485 175.64905,138.49556 179.285349,135.649761 C182.921648,132.803962 185.806972,129.444338 187.941321,125.570889 C190.075671,121.69744 191.142845,117.626366 191.142845,113.357668 L191.142845,0.474299864 L209.64054,0.474299864 L209.64054,113.357668 C209.64054,120.314066 208.099065,126.835689 205.016116,132.922537 C201.933167,139.009385 197.743518,144.305734 192.44717,148.811582 C187.150821,153.317431 180.905873,156.87468 173.712325,159.483329 C166.518777,162.091979 158.890455,163.396303 150.827357,163.396303 Z" id="路径"></path>
                        <polygon id="路径" points="268.928023 163.396303 250.193178 163.396303 250.193178 1.42289959 268.928023 1.42289959"></polygon>
                        <polygon id="路径" points="396.277537 81.1052768 344.816001 81.1052768 344.816001 62.3704321 396.277537 62.3704321"></polygon>
                        <path d="M559.19954,163.396303 L495.169058,80.8681268 L510.109504,69.4849301 L573.902836,152.013106 L559.19954,163.396303 Z M489.00316,106.00602 L475.248464,93.4370732 L558.96239,0.948599728 L572.717086,13.2803962 L489.00316,106.00602 Z M489.24031,163.396303 L470.742615,163.396303 L470.742615,20.3948942 L465.525317,20.3948942 L465.525317,1.66004952 L489.24031,1.66004952 L489.24031,163.396303 Z" id="形状"></path>
                        <polygon id="路径" points="636.747568 163.396303 618.012723 163.396303 618.012723 1.42289959 636.747568 1.42289959"></polygon>
                        <path d="M745.599387,161.973404 L726.864542,161.973404 L726.864542,9.24884735 L745.599387,9.24884735 L745.599387,161.973404 Z M797.772372,18.4976947 L674.691557,18.4976947 L674.691557,0 L797.772372,0 L797.772372,18.4976947 Z" id="形状"></path>
                    </g>
                </g>
            </g>
        </g>
    </g>
</svg>