<?xml version="1.0" standalone="no"?><!DOCTYPE svg PUBLIC "-//W3C//DTD SVG 1.1//EN" "http://www.w3.org/Graphics/SVG/1.1/DTD/svg11.dtd"><svg class="icon" width="200px" height="150.04px" viewBox="0 0 1365 1024" version="1.1" xmlns="http://www.w3.org/2000/svg"><path d="M341.333333 383.431111H0v544.426667C0 980.954074 43.045926 1024 96.142222 1024H341.333333V383.431111zM1269.191111 0H96.142222A96.142222 96.142222 0 0 0 0 96.142222v193.422222h1365.333333V96.142222C1365.333333 43.045926 1322.287407 0 1269.191111 0zM181.475556 240.071111a47.786667 47.786667 0 1 1-3.413334-95.516444 47.786667 47.786667 0 0 1 3.413334 95.516444z m138.808888 0a47.786667 47.786667 0 1 1 0-95.573333 47.786667 47.786667 0 0 1 0 95.573333z m138.808889 0a47.786667 47.786667 0 1 1 33.583408-13.786074 47.786667 47.786667 0 0 1-34.152297 13.786074h0.568889z" fill="#3577FE" /><path d="M434.631111 1024h834.56c53.096296 0 96.142222-43.045926 96.142222-96.142222v-227.555556H434.631111V1024z" fill="#FF0000" /><path d="M434.631111 384v225.28H1365.333333V383.431111H434.631111z" fill="#E7F1FE" /></svg>