<?xml version="1.0" standalone="no"?><!DOCTYPE svg PUBLIC "-//W3C//DTD SVG 1.1//EN" "http://www.w3.org/Graphics/SVG/1.1/DTD/svg11.dtd"><svg class="icon" width="200px" height="200.00px" viewBox="0 0 1024 1024" version="1.1" xmlns="http://www.w3.org/2000/svg"><path d="M841.926194 508.135226C841.926194 273.127226 653.444129 82.580645 420.946581 82.580645 188.482065 82.580645 0 273.127226 0 508.135226c0 235.041032 188.482065 425.554581 420.946581 425.55458 76.172387 0 147.422968-20.727742 209.044645-56.534709V521.645419l193.453419 111.269162a429.931355 429.931355 0 0 0 18.498065-124.779355z" fill="#3577FE" /><path d="M411.185548 694.717935l-86.759225 87.139097c-47.863742 48.094968-94.852129 17.259355-142.781936-30.835613-47.896774-48.078452-78.583742-95.331097-30.670452-143.426064l86.759226-87.122581c32.999226-33.114839 79.938065-42.875871 121.77342-30.389677L193.189161 658.167742l78.121291 78.996645L439.824516 566.833548c15.095742 43.30529 5.84671 93.316129-28.638968 127.884387z" fill="#E7F1FE" /><path d="M468.116645 415.050323c11.99071-12.023742 36.252903-7.168 54.222452 10.900645 17.953032 18.085161-15.789419 32.883613-27.780129 44.973419l-110.525936 111.698581c-11.99071 12.023742-4.525419 22.874839-22.494967 4.822709-18.002581-18.019097-29.002323-35.988645-17.011613-47.979354l123.590193-124.432517z" fill="#E7F1FE" /><path d="M691.2 412.292129l-88.229161 88.658581c-34.485677 34.683871-84.083613 44.263226-127.504516 29.861161l173.188129-175.021419-78.220387-78.996646L396.915613 452.211613c-14.600258-43.685161-5.12-93.729032 29.563871-128.512l88.245677-88.625548c48.772129-48.970323 97.081806-18.167742 145.787871 30.769548 48.805161 48.953806 79.475613 97.560774 30.703484 146.448516z" fill="#E7F1FE" /><path d="M679.407484 610.799484V1024l135.927742-176.590452L1024 817.416258l-344.592516-206.616774z" fill="#FF0000" /></svg>