<?xml version="1.0" standalone="no"?><!DOCTYPE svg PUBLIC "-//W3C//DTD SVG 1.1//EN" "http://www.w3.org/Graphics/SVG/1.1/DTD/svg11.dtd"><svg class="icon" width="200px" height="200.00px" viewBox="0 0 1024 1024" version="1.1" xmlns="http://www.w3.org/2000/svg"><path d="M512 512m-512 0a512 512 0 1 0 1024 0 512 512 0 1 0-1024 0Z" fill="#EEEEEE" /><path d="M701.343396 349.70566h-30.913207v-44.437735c0-19.320755-19.320755-34.777358-44.437736-34.777359H415.396226c-23.184906 0-44.437736 15.456604-44.437735 34.777359v46.369811h-30.913208c-42.50566-1.932075-79.215094 34.777358-79.215094 79.215094v301.403774c0 44.437736 36.709434 81.14717 81.147169 81.14717h361.298114c44.437736 0 81.14717-36.709434 81.14717-81.14717V430.85283c-1.932075-44.437736-38.641509-81.14717-83.079246-81.14717z m-69.554717 258.898114c0 15.456604-11.592453 27.049057-27.049056 27.049056h-38.64151v38.64151c0 15.456604-11.592453 27.049057-27.049056 27.049056h-38.64151c-15.456604 0-27.049057-11.592453-27.049056-27.049056v-38.64151h-38.64151c-15.456604 0-27.049057-11.592453-27.049056-27.049056v-38.64151c0-15.456604 11.592453-27.049057 27.049056-27.049056h38.64151v-38.64151c0-15.456604 11.592453-27.049057 27.049056-27.049056h38.64151c15.456604 0 27.049057 11.592453 27.049056 27.049056v38.64151h38.64151c15.456604 0 27.049057 11.592453 27.049056 27.049056v38.64151z m0-258.898114H411.532075v-27.049056c0-11.592453 13.524528-23.184906 28.981133-23.184906h162.294339c15.456604 0 28.981132 9.660377 28.981132 23.184906v27.049056z" fill="#D6D6D6" /></svg>