<?xml version="1.0" standalone="no"?><!DOCTYPE svg PUBLIC "-//W3C//DTD SVG 1.1//EN" "http://www.w3.org/Graphics/SVG/1.1/DTD/svg11.dtd"><svg class="icon" width="200px" height="200.00px" viewBox="0 0 1024 1024" version="1.1" xmlns="http://www.w3.org/2000/svg"><path d="M365.792 110.32A46.784 46.784 0 0 1 412.8 157.328l-0.112 3.104v0.096l-10 152.96a124.688 124.688 0 0 1 110.304-65.92c68.8 0.096 124.512 56.112 124.416 125.04a124.624 124.624 0 0 1-61.216 107.136c33.008 15.408 119.2 61.92 119.312 187.36l16.496 17.6c62.512-46.912 103.904-95.328 129.92-142.448 28.384-51.312 38.992-101.12 38.992-146.64 0-38.72-7.2-74.336-19.2-103.936C825.104 202.048 754.912 127.92 664 90.512 617.408 71.2 565.392 64 512 64c-72 0-139.904 17.2-200.416 47.312l53.408-0.8 0.8-0.192z m290.912 806.464c-12.8 0.096-24.8-5.104-33.408-13.696a47.232 47.232 0 0 1-13.696-33.312c0-1.008 0-2.208 0.096-3.312l8.912-124.832c-25.712 5.696-60.208 9.696-106.304 10.304h-0.4c-186.4-3.104-182.4-61.92-182.4-61.92-9.008-141.952 84.192-194.88 119.296-210.88a124.432 124.432 0 0 1-60.208-100.928 29.984 29.984 0 0 1-20.704 8.096c-6.592 0-12.192-1.904-16.592-4.4-4.4-2.4-8-5.504-11.2-8.8l-28.8-30.304c-61.92 46.912-102.912 95.328-128.704 142.24-28 51.312-38.608 100.832-38.608 146.24 0 39.024 8.304 74.64 19.504 104.752 42.896 115.936 125.696 170.352 188.304 194.352A446.048 446.048 0 0 0 512.112 960c69.088 0 134.688-15.712 193.2-43.712l-48.608 0.496z" fill="#3577FE" /><path d="M313.888 310.784l43.504 45.92c9.408 9.904 17.696 6.8 18.704-6.816l12.496-190.752c0.8-13.504-9.504-24.512-23.104-24.224l-191.2 2.912c-13.504 0.208-17.104 8.4-7.696 18.304l34.288 36.112A445.04 445.04 0 0 0 82.4 387.312c-46.704 158.56-1.696 322.512 104.208 434.544-71.008-77.232-148.112-316.112 127.296-511.072zM940.912 641.6c47.6-158.352 3.408-322.4-101.808-435.04 70.608 77.408 146.4 316.688-129.904 510.256l-43.296-46.016c-9.296-9.904-17.696-6.896-18.704 6.72l-13.392 190.752a22.464 22.464 0 0 0 22.88 24.416l191.216-1.808c13.504-0.096 17.12-8.32 7.712-18.208l-34.208-36.416a443.984 443.984 0 0 0 119.52-194.656z" fill="#FF0000" /></svg>