<?xml version="1.0" standalone="no"?><!DOCTYPE svg PUBLIC "-//W3C//DTD SVG 1.1//EN" "http://www.w3.org/Graphics/SVG/1.1/DTD/svg11.dtd"><svg class="icon" width="200px" height="200.00px" viewBox="0 0 1024 1024" version="1.1" xmlns="http://www.w3.org/2000/svg"><path d="M650.581333 0v273.066667c0 37.708351 31.025404 68.266667 69.290667 68.266666H997.052632v614.4c0 37.708351-31.025404 68.266667-69.290667 68.266667H96.238035C57.972772 1024 26.947368 993.441684 26.947368 955.733333V68.266667C26.947368 30.558316 57.972772 0 96.238035 0h554.343298z" fill="#3577FE" /><path d="M428.157754 729.842526l-98.052491-96.561403a35.031579 35.031579 0 0 0-48.199859 0.772491 33.774035 33.774035 0 0 0-0.754527 47.481263l122.466807 120.706246a35.031579 35.031579 0 0 0 48.990316 0l269.473684-265.485474a33.774035 33.774035 0 0 0 0.03593-48.289684 35.031579 35.031579 0 0 0-49.008281-0.017965L428.157754 729.842526z" fill="#E7F1FE" /><path d="M719.872 0L997.052632 273.066667H754.526316c-9.18007 0-18.000842-3.592982-24.504141-9.988492a33.881825 33.881825 0 0 1-10.150175-24.144842V0z" fill="#FF2D2D" /></svg>