<?xml version="1.0" standalone="no"?><!DOCTYPE svg PUBLIC "-//W3C//DTD SVG 1.1//EN" "http://www.w3.org/Graphics/SVG/1.1/DTD/svg11.dtd"><svg class="icon" width="200px" height="200.00px" viewBox="0 0 1024 1024" version="1.1" xmlns="http://www.w3.org/2000/svg"><path d="M211.299556 311.608889v380.103111h218.737777v126.72H85.333333V184.888889h818.787556v211.157333h-125.966222v-84.451555z" fill="#3577FE" /><path d="M746.666667 881.777778c-105.500444 0-179.000889-63.36-220.444445-190.065778 41.443556-126.705778 114.944-190.051556 220.444445-190.051556 105.500444 0 179.000889 63.345778 220.444444 190.051556C925.667556 818.432 852.167111 881.777778 746.666667 881.777778z" fill="#3577FE" /><path d="M746.666667 818.417778c69.575111 0 125.966222-56.718222 125.966222-126.705778 0-69.973333-56.391111-126.705778-125.966222-126.705778-69.575111 0-125.966222 56.732444-125.966223 126.72 0 69.973333 56.391111 126.691556 125.966223 126.691556z" fill="#E7F1FE" /><path d="M746.666667 755.057778c-34.787556 0-62.990222-28.344889-62.990223-63.345778 0-34.986667 28.202667-63.345778 62.990223-63.345778s62.990222 28.359111 62.990222 63.345778-28.202667 63.36-62.990222 63.36z" fill="#3577FE" /><path d="M321.521778 535.239111l-45.596445-43.719111 112.995556-119.552 95.914667 96.497778 82.005333-82.488889 44.600889 44.8-126.606222 127.331555-94.663112-95.416888-68.650666 72.476444z" fill="#FF0000" /></svg>