<?xml version="1.0" standalone="no"?><!DOCTYPE svg PUBLIC "-//W3C//DTD SVG 1.1//EN" "http://www.w3.org/Graphics/SVG/1.1/DTD/svg11.dtd"><svg class="icon" width="200px" height="196.36px" viewBox="0 0 1043 1024" version="1.1" xmlns="http://www.w3.org/2000/svg"><path d="M521.660377 512m-512 0a512 512 0 1 0 1024 0 512 512 0 1 0-1024 0Z" fill="#EEEEEE" /><path d="M444.377358 678.158491c7.728302 0 13.524528 1.932075 19.320755 3.864151s11.592453 5.796226 15.456604 9.660377c3.864151 3.864151 7.728302 9.660377 11.592453 15.456604 1.932075 5.796226 3.864151 13.524528 3.864151 19.320754 0 7.728302-1.932075 13.524528-3.864151 19.320755-1.932075 5.796226-5.796226 11.592453-11.592453 15.456604-3.864151 3.864151-9.660377 7.728302-15.456604 11.592453-5.796226 1.932075-13.524528 3.864151-19.320755 3.864151-7.728302 0-13.524528-1.932075-19.320754-3.864151-5.796226-1.932075-11.592453-5.796226-15.456604-11.592453-5.796226-3.864151-9.660377-7.728302-13.524528-15.456604-1.932075-5.796226-3.864151-13.524528-3.864151-19.320755 0-7.728302 1.932075-13.524528 3.864151-19.320754 1.932075-5.796226 5.796226-11.592453 11.592453-15.456604 3.864151-3.864151 9.660377-7.728302 15.456603-9.660377 5.796226-3.864151 13.524528-3.864151 21.25283-3.864151z m224.120755 0c7.728302 0 13.524528 1.932075 19.320755 3.864151 5.796226 1.932075 11.592453 5.796226 15.456604 9.660377 3.864151 3.864151 7.728302 9.660377 11.592453 15.456604 1.932075 5.796226 3.864151 13.524528 3.86415 19.320754 0 7.728302-1.932075 13.524528-3.86415 19.320755-1.932075 5.796226-5.796226 11.592453-11.592453 15.456604-3.864151 3.864151-9.660377 7.728302-15.456604 11.592453-5.796226 1.932075-13.524528 3.864151-19.320755 3.864151-7.728302 0-13.524528-1.932075-19.320755-3.864151s-11.592453-5.796226-15.456603-11.592453c-3.864151-3.864151-7.728302-9.660377-11.592453-15.456604-1.932075-5.796226-3.864151-13.524528-3.864151-19.320755 0-7.728302 1.932075-13.524528 3.864151-19.320754 1.932075-5.796226 5.796226-11.592453 11.592453-15.456604s9.660377-7.728302 15.456603-9.660377 13.524528-3.864151 19.320755-3.864151z m90.807547-307.2c9.660377 0 17.388679 1.932075 23.184906 3.864151 5.796226 1.932075 9.660377 5.796226 11.592453 9.660377 1.932075 3.864151 3.864151 7.728302 3.864151 13.524528 0 3.864151 0 7.728302-1.932076 11.592453-1.932075 3.864151-3.864151 9.660377-7.728302 19.320755s-7.728302 21.25283-11.592452 32.845283c-3.864151 11.592453-7.728302 23.184906-11.592453 36.709434-3.864151 11.592453-7.728302 21.25283-9.660378 28.981132-3.864151 13.524528-9.660377 25.116981-17.388679 30.913207-7.728302 5.796226-15.456604 7.728302-27.049056 7.728302H426.988679l7.728302 48.301887h272.422642c17.388679 0 25.116981 7.728302 25.116981 21.25283 0 7.728302-1.932075 13.524528-5.796227 19.320755-3.864151 5.796226-9.660377 7.728302-19.320754 7.728302H425.056604c-7.728302 0-13.524528-1.932075-17.388679-5.796227-5.796226-3.864151-9.660377-7.728302-11.592453-13.524528-3.864151-5.796226-5.796226-11.592453-7.728302-17.388679-1.932075-5.796226-3.864151-11.592453-3.864151-17.388679 0-1.932075-1.932075-7.728302-3.864151-15.456604s-3.864151-19.320755-5.796226-30.913208c-1.932075-11.592453-5.796226-27.049057-7.728302-42.50566-1.932075-15.456604-5.796226-30.913208-7.728302-46.369811-7.728302-36.709434-15.456604-77.283019-23.184906-121.720755h-42.50566c-5.796226 1.932075-9.660377 1.932075-13.524529-1.932076s-7.728302-5.796226-9.660377-9.660377c-1.932075-3.864151-3.864151-7.728302-3.864151-11.592453 0-3.864151-1.932075-7.728302-1.932075-11.592453 0-7.728302 1.932075-13.524528 7.728302-17.388679s11.592453-7.728302 19.320754-7.728302h56.030189c7.728302 0 13.524528 1.932075 17.388679 3.864151 3.864151 1.932075 7.728302 5.796226 9.660378 7.728302 1.932075 3.864151 3.864151 5.796226 3.86415 9.660377 1.932075 3.864151 1.932075 5.796226 1.932076 9.660378 0 1.932075 1.932075 7.728302 1.932075 11.592453 0 5.796226 1.932075 9.660377 1.932076 15.456603 1.932075 5.796226 1.932075 13.524528 3.864151 21.252831h370.95849z m-40.573585-17.38868H521.660377l71.486793-71.486792c7.728302-7.728302 17.388679-11.592453 27.049056-11.592453 9.660377 0 19.320755 3.864151 27.049057 11.592453l71.486792 71.486792z" fill="#D6D6D6" /></svg>