<?xml version="1.0" standalone="no"?><!DOCTYPE svg PUBLIC "-//W3C//DTD SVG 1.1//EN" "http://www.w3.org/Graphics/SVG/1.1/DTD/svg11.dtd"><svg class="icon" width="200px" height="200.00px" viewBox="0 0 1024 1024" version="1.1" xmlns="http://www.w3.org/2000/svg"><path d="M195.637895 793.653895l-29.049263 8.245894-16.887018-9.539368-1.97614 66.721684 12.108351 6.826667 59.823157-34.043509-16.797193-9.467509-7.221894-28.743859zM904.353684 0H119.646316C78.380912 0 44.912281 32.750035 44.912281 73.135158V950.882807C44.912281 991.249965 78.380912 1024 119.646316 1024h784.707368c41.265404 0 74.734035-32.750035 74.734035-73.135158V73.117193C979.087719 32.750035 945.619088 0 904.353684 0z m-37.367017 950.864842h-467.08772c-20.641684 0-37.367018-16.384-37.367017-36.576561s16.725333-36.576561 37.367017-36.576562h467.08772c20.641684 0 37.367018 16.384 37.367017 36.576562s-16.725333 36.576561-37.367017 36.576561z m0-292.576561H549.367018c-20.641684 0-37.367018-16.384-37.367018-36.576562s16.725333-36.576561 37.367018-36.576561h317.619649c20.641684 0 37.367018 16.384 37.367017 36.576561s-16.725333 36.576561-37.367017 36.576562z" fill="#3577FE" /><path d="M866.986667 804.576561H474.632982c-20.641684 0-37.367018-16.384-37.367017-36.576561s16.725333-36.576561 37.367017-36.576561h392.353685c20.641684 0 37.367018 16.384 37.367017 36.576561s-16.725333 36.576561-37.367017 36.576561z" fill="#FF0707" /><path d="M511.407158 110.55607c10.31186-17.47986 33.163228-23.48014 51.038316-13.383859l64.727579 36.576561a36.145404 36.145404 0 0 1 13.671298 49.942456l-18.683509 31.67214-129.437193-73.135157 18.683509-31.672141zM474.058105 173.882386l129.437193 73.135158-18.683509 31.67214-129.437193-73.153123zM243.388632 851.303298l-93.776843 48.038176c-11.479579 5.892491-25.294596-1.922246-25.833543-14.587509l-4.383439-103.513825c-0.143719-3.772632 0.790456-7.491368 2.694737-10.743017l314.601544-533.288421 129.437193 73.135158-314.565614 533.288421a20.120702 20.120702 0 0 1-8.174035 7.671017z" fill="#D6E3FE" /></svg>