<?xml version="1.0" standalone="no"?><!DOCTYPE svg PUBLIC "-//W3C//DTD SVG 1.1//EN" "http://www.w3.org/Graphics/SVG/1.1/DTD/svg11.dtd"><svg class="icon" width="200px" height="196.36px" viewBox="0 0 1043 1024" version="1.1" xmlns="http://www.w3.org/2000/svg"><path d="M521.660377 512m-512 0a512 512 0 1 0 1024 0 512 512 0 1 0-1024 0Z" fill="#EEEEEE" /><path d="M775.477132 356.931623c-7.960151-3.980075-12.751698-12.751698-11.959547-22.334793 1.951396-22.991698-5.564377-26.353509-10.355925-32.729358-4.772226-6.375849-29.116377-7.129358-37.095849-9.525132-7.960151-2.376453-13.331321-31.260981-22.701886-38.255095-9.776302-7.283925-35.086491-1.603623-47.046038 24.711246-11.978868 26.314868 0 92.488453 0 92.488452-1.410415 10.162717-18.354717 4.772226-18.354717 4.772227-35.859321-9.563774-64.376755-4.772226-64.376755-4.772227-55.257358 7.921509-92.836226 29.560755-118.300981 56.803019-48.456453 45.017358-59.507925 104.525283-59.855698 125.720151-0.618264 37.153811 12.558491 62.792453 6.974792 69.960453-0.792151 5.603019-25.232906-3.245887-62.193509-4.772226-44.727547-1.874113-70.15366 20.73117-69.36151 29.502792 0.792151 8.771623 18.354717 14.355321 26.314868 18.335396 7.960151 3.980075 12.751698 12.751698 11.959548 22.315472-1.932075 22.991698 5.564377 26.37283 10.355924 32.748679 4.772226 6.375849 29.116377 7.110038 37.095849 9.525132 7.960151 2.376453 13.331321 31.260981 22.701887 38.255095 9.776302 7.283925 35.086491 1.603623 47.046038-24.730566 11.978868-26.276226 0-92.469132 0-92.469132 1.410415-10.162717 18.354717-4.791547 18.354717-4.791548 35.859321 9.563774 64.376755 4.791547 64.376754 4.791548 55.296-7.921509 92.855547-29.580075 118.320302-56.841661 48.437132-45.017358 59.469283-104.486642 59.836378-125.681509 0.618264-37.153811-12.558491-62.792453-6.974793-69.979774 0.792151-5.583698 25.232906 3.245887 62.19351 4.791547 44.746868 1.854792 70.15366-20.73117 69.361509-29.502792-0.77283-8.771623-18.354717-14.355321-26.314868-18.354717z" fill="#D6D6D6" /></svg>