<?xml version="1.0" standalone="no"?><!DOCTYPE svg PUBLIC "-//W3C//DTD SVG 1.1//EN" "http://www.w3.org/Graphics/SVG/1.1/DTD/svg11.dtd"><svg class="icon" width="200px" height="200.00px" viewBox="0 0 1024 1024" version="1.1" xmlns="http://www.w3.org/2000/svg"><path d="M424.084048 419.46988h422.578892c9.351711 0 16.951518 7.365398 16.951518 16.433349v254.026024c0 9.055614-7.599807 16.433349-16.951518 16.433349h-71.692338V752.578313l-70.470939-46.215711h-280.427952c-9.339373 0-16.939181-7.377735-16.939181-16.445686V435.903229A16.778795 16.778795 0 0 1 424.084048 419.46988z" fill="#FF0000" /><path d="M180.495422 271.421687c-11.066602 0-20.10988 9.018602-20.10988 20.035855v310.642121c0 11.017253 9.043277 20.035855 20.10988 20.035855h85.337445V678.554217l83.844627-56.418699H683.119036c11.066602 0 20.10988-9.006265 20.10988-20.035855V291.457542c0-11.017253-8.944578-20.035855-20.10988-20.035855H180.495422z" fill="#3577FE" /><path d="M234.409639 450.313253a30.843373 30.843373 0 1 0 61.686747 0 30.843373 30.843373 0 0 0-61.686747 0zM567.518072 450.313253a30.843373 30.843373 0 1 0 61.686747 0 30.843373 30.843373 0 0 0-61.686747 0zM407.13253 450.313253a30.843373 30.843373 0 1 0 61.686747 0 30.843373 30.843373 0 0 0-61.686747 0z" fill="#FFFFFF" /></svg>