<?xml version="1.0" standalone="no"?><!DOCTYPE svg PUBLIC "-//W3C//DTD SVG 1.1//EN" "http://www.w3.org/Graphics/SVG/1.1/DTD/svg11.dtd"><svg class="icon" width="200px" height="200.00px" viewBox="0 0 1024 1024" version="1.1" xmlns="http://www.w3.org/2000/svg"><path d="M512 512m-512 0a512 512 0 1 0 1024 0 512 512 0 1 0-1024 0Z" fill="#EEEEEE" /><path d="M700.763774 629.76v25.059019c0 7.998792-0.869434 14.973585-2.608302 20.885736-1.738868 5.912151-4.86883 10.626415-9.389887 14.104151-4.540377 3.477736-11.321962 5.216604-20.364076 5.216603v32.381585c0 9.042113-3.226566 16.789736-9.660377 23.223548a31.686038 31.686038 0 0 1-23.242868 9.660377c-9.061434 0-16.712453-3.207245-22.991698-9.660377a32.130415 32.130415 0 0 1-9.389887-23.223548v-32.381585H406.77917v32.381585c0 9.042113-3.129962 16.789736-9.389887 23.223548-6.279245 6.453132-13.930264 9.660377-22.991698 9.660377a31.686038 31.686038 0 0 1-23.223547-9.660377 31.686038 31.686038 0 0 1-9.660378-23.223548v-32.381585c-8.69434 0-15.321358-1.738868-19.842415-5.216603a26.759245 26.759245 0 0 1-9.409207-14.104151 79.678792 79.678792 0 0 1-2.859472-20.634566 1144.368302 1144.368302 0 0 1-0.270491-25.310189V335.756075c0-9.042113 1.738868-17.485283 5.216604-25.310188a67.873811 67.873811 0 0 1 34.738717-34.738717 61.633208 61.633208 0 0 1 25.310189-5.216604h261.100679c9.042113 0 17.485283 1.738868 25.310189 5.216604A67.873811 67.873811 0 0 1 695.54717 310.445887c3.477736 7.824906 5.216604 16.268075 5.216604 25.310188v294.003925z m-262.12468-326.90717a15.630491 15.630491 0 0 0-11.495849 4.714264 15.630491 15.630491 0 0 0-4.694943 11.495849c0 4.86883 1.54566 8.868226 4.694943 11.998189 3.129962 3.129962 6.955472 4.694943 11.495849 4.694943h132.636981a15.630491 15.630491 0 0 0 11.476529-4.694943 16.268075 16.268075 0 0 0 4.694943-11.998189 15.630491 15.630491 0 0 0-4.694943-11.495849 15.630491 15.630491 0 0 0-11.476529-4.694943h-132.636981z m-49.074717 332.123774c6.607698 0 12.249358-2.357132 16.963623-7.052076 4.694943-4.694943 7.032755-10.355925 7.032755-16.963622 0-6.627019-2.337811-12.288-7.032755-16.982944a23.126943 23.126943 0 0 0-16.982943-7.052075c-6.955472 0-12.693736 2.357132-17.234114 7.052075a23.571321 23.571321 0 0 0-6.781585 16.982944c0 6.607698 2.260528 12.268679 6.781585 16.963622 4.540377 4.694943 10.278642 7.052075 17.234114 7.052076zM618.264151 633.913962c6.259925 0 11.592453-2.260528 15.920302-6.800905 4.366491-4.521057 6.530415-9.911547 6.530415-16.171472 0-6.279245-2.163925-11.669736-6.530415-16.190793a21.25283 21.25283 0 0 0-15.920302-6.800905c-6.607698 0-12.094792 2.279849-16.441962 6.800905a22.547321 22.547321 0 0 0-6.530415 16.190793c0 6.259925 2.163925 11.650415 6.530415 16.171472 4.34717 4.540377 9.834264 6.800906 16.441962 6.800905z m50.137358-265.795622h-326.907169v130.550339h326.907169v-130.550339z" fill="#D6D6D6" /></svg>