<?xml version="1.0" standalone="no"?><!DOCTYPE svg PUBLIC "-//W3C//DTD SVG 1.1//EN" "http://www.w3.org/Graphics/SVG/1.1/DTD/svg11.dtd"><svg class="icon" width="200px" height="200.00px" viewBox="0 0 1024 1024" version="1.1" xmlns="http://www.w3.org/2000/svg"><path d="M323.584 265.515323c-13.390769 0-24.260923-11.279754-24.260923-25.206154V119.729231c0-13.910646 10.870154-25.206154 24.260923-25.206154 13.390769 0 24.260923 11.295508 24.260923 25.206154v120.579938c0 13.9264-10.870154 25.206154-24.260923 25.206154z m361.078154 0c-13.390769 0-24.260923-11.279754-24.260923-25.206154V119.729231c0-13.910646 10.870154-25.206154 24.260923-25.206154 13.390769 0 24.260923 11.295508 24.260923 25.206154v120.579938c0 13.9264-10.870154 25.206154-24.260923 25.206154z" fill="#E7F1FE" /><path d="M788.590277 173.292308H203.902031C134.931692 173.292308 78.769231 228.588308 78.769231 296.518892v478.223754C78.769231 842.657477 134.931692 897.969231 203.902031 897.969231h584.688246C857.560615 897.969231 913.723077 842.673231 913.723077 774.742646v-478.129231C913.723077 228.604062 857.560615 173.292308 788.590277 173.292308zM214.315323 336.250092h162.863262c13.816123 0 25.017108 11.027692 25.017107 24.639016 0 13.611323-11.200985 24.654769-25.017107 24.654769H214.315323c-13.816123 0-25.032862-11.043446-25.032861-24.654769 0-13.595569 11.216738-24.639015 25.032861-24.639016z m87.386585 313.501539h-87.386585c-13.816123 0-25.032862-11.0592-25.032861-24.654769 0-13.611323 11.216738-24.654769 25.032861-24.65477h87.386585c13.816123 0 25.017108 11.043446 25.017107 24.65477 0 13.595569-11.200985 24.639015-25.017107 24.639015z m-87.386585-128.173293c-13.816123 0-25.032862-11.027692-25.032861-24.639015 0-13.611323 11.216738-24.654769 25.032861-24.654769h162.863262c13.816123 0 25.017108 11.043446 25.017107 24.654769 0 13.595569-11.200985 24.639015-25.017107 24.639015H214.315323z m576.275692 245.9648c-13.800369 0-25.017108-11.027692-25.017107-24.639015 0-87.433846-72.168369-158.530954-160.9728-158.530954-88.788677 0-160.957046 71.081354-160.957046 158.530954 0 13.595569-11.216738 24.639015-25.032862 24.639015s-25.017108-11.027692-25.017108-24.639015c0-84.7872 51.751385-157.837785 125.82597-190.164677-28.435692-23.7568-46.442338-59.250215-46.442339-98.682092 0-71.4752 59.061169-129.6384 131.623385-129.6384 72.577969 0 131.639138 58.1632 131.639138 129.6384 0 39.542154-18.0224 74.925292-46.442338 98.682092 74.074585 32.326892 125.825969 105.393231 125.825969 190.148923 0 13.611323-11.216738 24.654769-25.032862 24.654769z" fill="#3577FE" /><path d="M610.398523 371.286646c-43.575138 0-79.084308 36.895508-79.084308 82.172062S566.823385 535.630769 610.382769 535.630769c43.590892 0 79.115815-36.895508 79.115816-82.172061s-35.524923-82.172062-79.115816-82.172062z" fill="#FF0000" /></svg>